<svg width="67" height="48" viewBox="0 0 67 48" fill="none" xmlns="http://www.w3.org/2000/svg">
<rect width="67" height="48" rx="2" fill="white"/>
<mask id="mask0_326_35" style="mask-type:luminance" maskUnits="userSpaceOnUse" x="0" y="0" width="67" height="48">
<rect width="67" height="48" rx="2" fill="white"/>
</mask>
<g mask="url(#mask0_326_35)">
<rect width="67" height="48" fill="#30C6E0"/>
<path fill-rule="evenodd" clip-rule="evenodd" d="M33.5001 33.6C38.7863 33.6 43.0716 29.3019 43.0716 24C43.0716 18.6981 38.7863 14.4 33.5001 14.4C28.214 14.4 23.9287 18.6981 23.9287 24C23.9287 29.3019 28.214 33.6 33.5001 33.6Z" fill="#FFCD4B"/>
<path fill-rule="evenodd" clip-rule="evenodd" d="M29.5951 41.1587L33.4998 35.3127L37.4045 41.1587L38.3935 34.1924L44.4405 37.7602L42.318 31.0533L49.3096 31.6364L44.496 26.5173L51.0474 24L44.496 21.4827L49.3096 16.3637L42.318 16.9467L44.4405 10.2398L38.3935 13.8076L37.4045 6.84128L33.4998 12.6873L29.5951 6.84128L28.606 13.8076L22.559 10.2398L24.6815 16.9467L17.6899 16.3637L22.5036 21.4827L15.9521 24L22.5036 26.5173L17.6899 31.6364L24.6815 31.0533L22.559 37.7602L28.606 34.1924L29.5951 41.1587ZM44.6664 24C44.6664 30.1856 39.6669 35.2 33.4998 35.2C27.3326 35.2 22.3331 30.1856 22.3331 24C22.3331 17.8144 27.3326 12.8 33.4998 12.8C39.6669 12.8 44.6664 17.8144 44.6664 24Z" fill="#FFCD4B"/>
<path fill-rule="evenodd" clip-rule="evenodd" d="M3.19043 3.53335C3.19043 3.34925 3.33967 3.20001 3.52376 3.20001H6.04757C6.23167 3.20001 6.38091 3.34925 6.38091 3.53335V6.06668C6.38091 6.25077 6.23167 6.40001 6.04757 6.40001H3.52376C3.33967 6.40001 3.19043 6.25077 3.19043 6.06668V3.53335ZM3.19043 9.93335C3.19043 9.74925 3.33967 9.60001 3.52376 9.60001H6.04757C6.23167 9.60001 6.38091 9.74925 6.38091 9.93335V12.4667C6.38091 12.6508 6.23167 12.8 6.04757 12.8H3.52376C3.33967 12.8 3.19043 12.6508 3.19043 12.4667V9.93335ZM3.52376 16C3.33967 16 3.19043 16.1493 3.19043 16.3333V18.8667C3.19043 19.0508 3.33967 19.2 3.52376 19.2H6.04757C6.23167 19.2 6.38091 19.0508 6.38091 18.8667V16.3333C6.38091 16.1493 6.23167 16 6.04757 16H3.52376ZM3.19043 22.7333C3.19043 22.5493 3.33967 22.4 3.52376 22.4H6.04757C6.23167 22.4 6.38091 22.5493 6.38091 22.7333V25.2667C6.38091 25.4508 6.23167 25.6 6.04757 25.6H3.52376C3.33967 25.6 3.19043 25.4508 3.19043 25.2667V22.7333ZM3.52376 28.8C3.33967 28.8 3.19043 28.9493 3.19043 29.1333V31.6667C3.19043 31.8508 3.33967 32 3.52376 32H6.04757C6.23167 32 6.38091 31.8508 6.38091 31.6667V29.1333C6.38091 28.9493 6.23167 28.8 6.04757 28.8H3.52376ZM3.19043 35.5333C3.19043 35.3493 3.33967 35.2 3.52376 35.2H6.04757C6.23167 35.2 6.38091 35.3493 6.38091 35.5333V38.0667C6.38091 38.2508 6.23167 38.4 6.04757 38.4H3.52376C3.33967 38.4 3.19043 38.2508 3.19043 38.0667V35.5333ZM3.52376 41.6C3.33967 41.6 3.19043 41.7493 3.19043 41.9333V44.4667C3.19043 44.6508 3.33967 44.8 3.52376 44.8H6.04757C6.23167 44.8 6.38091 44.6508 6.38091 44.4667V41.9333C6.38091 41.7493 6.23167 41.6 6.04757 41.6H3.52376ZM6.38091 38.7333C6.38091 38.5493 6.53014 38.4 6.71424 38.4H9.23805C9.42214 38.4 9.57138 38.5493 9.57138 38.7333V41.2667C9.57138 41.4508 9.42214 41.6 9.23805 41.6H6.71424C6.53014 41.6 6.38091 41.4508 6.38091 41.2667V38.7333ZM6.71424 32C6.53014 32 6.38091 32.1493 6.38091 32.3333V34.8667C6.38091 35.0508 6.53014 35.2 6.71424 35.2H9.23805C9.42214 35.2 9.57138 35.0508 9.57138 34.8667V32.3333C9.57138 32.1493 9.42214 32 9.23805 32H6.71424ZM6.38091 25.9333C6.38091 25.7493 6.53014 25.6 6.71424 25.6H9.23805C9.42214 25.6 9.57138 25.7493 9.57138 25.9333V28.4667C9.57138 28.6508 9.42214 28.8 9.23805 28.8H6.71424C6.53014 28.8 6.38091 28.6508 6.38091 28.4667V25.9333ZM6.71424 19.2C6.53014 19.2 6.38091 19.3493 6.38091 19.5333V22.0667C6.38091 22.2508 6.53014 22.4 6.71424 22.4H9.23805C9.42214 22.4 9.57138 22.2508 9.57138 22.0667V19.5333C9.57138 19.3493 9.42214 19.2 9.23805 19.2H6.71424ZM6.38091 13.1333C6.38091 12.9493 6.53014 12.8 6.71424 12.8H9.23805C9.42214 12.8 9.57138 12.9493 9.57138 13.1333V15.6667C9.57138 15.8508 9.42214 16 9.23805 16H6.71424C6.53014 16 6.38091 15.8508 6.38091 15.6667V13.1333ZM6.71424 6.40001C6.53014 6.40001 6.38091 6.54925 6.38091 6.73335V9.26668C6.38091 9.45077 6.53014 9.60001 6.71424 9.60001H9.23805C9.42214 9.60001 9.57138 9.45077 9.57138 9.26668V6.73335C9.57138 6.54925 9.42214 6.40001 9.23805 6.40001H6.71424Z" fill="#FFCD4B"/>
</g>
</svg>
